HIERARCHY
ROOT Hips
{
    OFFSET   0.000000   0.000000   0.000000
    CHANNELS 6 Xposition Yposition Zposition Zrotation Xrotation Yrotation
    JOINT Chest
    {
        OFFSET   0.000000   8.007230   0.000000
        CHANNELS 3 Zrotation Xrotation Yrotation
        JOINT Chest2
        {
            OFFSET   0.000000  22.077100   0.000000
            CHANNELS 3 Zrotation Xrotation Yrotation
            JOINT Neck
            {
                OFFSET   0.000000  23.254800  -0.000021
                CHANNELS 3 Zrotation Xrotation Yrotation
                JOINT Head
                {
                    OFFSET   0.000000  14.370000   1.956610
                    CHANNELS 3 Zrotation Xrotation Yrotation
                    End Site
                    {
                        OFFSET   0.000000  19.566000   0.000000
                    }
                }
            }
            JOINT LeftCollar
            {
                OFFSET   3.911900  19.017000  -0.467063
                CHANNELS 3 Zrotation Xrotation Yrotation
                JOINT LeftShoulder
                {
                    OFFSET  10.383700   0.000000   0.000000
                    CHANNELS 3 Zrotation Xrotation Yrotation
                    JOINT LeftElbow
                    {
                        OFFSET  26.662100   0.001529   0.000325
                        CHANNELS 3 Zrotation Xrotation Yrotation
                        JOINT LeftWrist
                        {
                            OFFSET  28.869000  -0.000011  -0.000096
                            CHANNELS 3 Zrotation Xrotation Yrotation
                            JOINT LeftFinger0
                            {
                                OFFSET   2.044650  -2.323460   3.252850
                                CHANNELS 3 Zrotation Xrotation Yrotation
                                JOINT LeftFinger01
                                {
                                    OFFSET   3.088130   0.000000   0.000000
                                    CHANNELS 3 Zrotation Xrotation Yrotation
                                    JOINT LeftFinger02
                                    {
                                        OFFSET   2.639460   0.000000   0.000000
                                        CHANNELS 3 Zrotation Xrotation Yrotation
                                        End Site
                                        {
                                            OFFSET   2.582190   0.000000   0.000000
                                        }
                                    }
                                }
                            }
                            JOINT LeftFinger1
                            {
                                OFFSET   8.364480   0.000000   3.252850
                                CHANNELS 3 Zrotation Xrotation Yrotation
                                JOINT LeftFinger11
                                {
                                    OFFSET   4.646930   0.000000   0.000000
                                    CHANNELS 3 Zrotation Xrotation Yrotation
                                    JOINT LeftFinger12
                                    {
                                        OFFSET   2.323460   0.000000   0.000000
                                        CHANNELS 3 Zrotation Xrotation Yrotation
                                        End Site
                                        {
                                            OFFSET   2.273050   0.000000   0.000000
                                        }
                                    }
                                }
                            }
                            JOINT LeftFinger2
                            {
                                OFFSET   8.364480   0.000016   1.078090
                                CHANNELS 3 Zrotation Xrotation Yrotation
                                JOINT LeftFinger21
                                {
                                    OFFSET   5.111620   0.000000   0.000000
                                    CHANNELS 3 Zrotation Xrotation Yrotation
                                    JOINT LeftFinger22
                                    {
                                        OFFSET   2.788160   0.000017   0.000000
                                        CHANNELS 3 Zrotation Xrotation Yrotation
                                        End Site
                                        {
                                            OFFSET   2.727660   0.000000   0.000000
                                        }
                                    }
                                }
                            }
                            JOINT LeftFinger3
                            {
                                OFFSET   7.899780   0.000015  -1.078090
                                CHANNELS 3 Zrotation Xrotation Yrotation
                                JOINT LeftFinger31
                                {
                                    OFFSET   4.646920   0.000000   0.000000
                                    CHANNELS 3 Zrotation Xrotation Yrotation
                                    JOINT LeftFinger32
                                    {
                                        OFFSET   2.323470   0.000000   0.000000
                                        CHANNELS 3 Zrotation Xrotation Yrotation
                                        End Site
                                        {
                                            OFFSET   2.273050   0.000000   0.000000
                                        }
                                    }
                                }
                            }
                            JOINT LeftFinger4
                            {
                                OFFSET   7.435090   0.000000  -3.252850
                                CHANNELS 3 Zrotation Xrotation Yrotation
                                JOINT LeftFinger41
                                {
                                    OFFSET   3.717550   0.000000   0.000000
                                    CHANNELS 3 Zrotation Xrotation Yrotation
                                    JOINT LeftFinger42
                                    {
                                        OFFSET   1.858760   0.000000   0.000000
                                        CHANNELS 3 Zrotation Xrotation Yrotation
                                        End Site
                                        {
                                            OFFSET   1.818440   0.000000   0.000000
                                        }
                                    }
                                }
                            }
                        }
                    }
                }
            }
            JOINT RightCollar
            {
                OFFSET  -3.911900  19.017000  -0.467062
                CHANNELS 3 Zrotation Xrotation Yrotation
                JOINT RightShoulder
                {
                    OFFSET -10.383700   0.000015   0.000000
                    CHANNELS 3 Zrotation Xrotation Yrotation
                    JOINT RightElbow
                    {
                        OFFSET -26.662100   0.001341   0.000385
                        CHANNELS 3 Zrotation Xrotation Yrotation
                        JOINT RightWrist
                        {
                            OFFSET -28.869000   0.000025  -0.000080
                            CHANNELS 3 Zrotation Xrotation Yrotation
                            JOINT RightFinger0
                            {
                                OFFSET  -2.044650  -2.323490   3.252850
                                CHANNELS 3 Zrotation Xrotation Yrotation
                                JOINT RightFinger01
                                {
                                    OFFSET  -3.088130   0.000000   0.000000
                                    CHANNELS 3 Zrotation Xrotation Yrotation
                                    JOINT RightFinger02
                                    {
                                        OFFSET  -2.639460   0.000000   0.000000
                                        CHANNELS 3 Zrotation Xrotation Yrotation
                                        End Site
                                        {
                                            OFFSET  -2.582190   0.000000   0.000000
                                        }
                                    }
                                }
                            }
                            JOINT RightFinger1
                            {
                                OFFSET  -8.364480   0.000000   3.252850
                                CHANNELS 3 Zrotation Xrotation Yrotation
                                JOINT RightFinger11
                                {
                                    OFFSET  -4.646930   0.000000   0.000000
                                    CHANNELS 3 Zrotation Xrotation Yrotation
                                    JOINT RightFinger12
                                    {
                                        OFFSET  -2.323470   0.000000   0.000000
                                        CHANNELS 3 Zrotation Xrotation Yrotation
                                        End Site
                                        {
                                            OFFSET  -2.273050   0.000000   0.000000
                                        }
                                    }
                                }
                            }
                            JOINT RightFinger2
                            {
                                OFFSET  -8.364480   0.000000   1.078090
                                CHANNELS 3 Zrotation Xrotation Yrotation
                                JOINT RightFinger21
                                {
                                    OFFSET  -5.111610   0.000000   0.000000
                                    CHANNELS 3 Zrotation Xrotation Yrotation
                                    JOINT RightFinger22
                                    {
                                        OFFSET  -2.788160   0.000000   0.000000
                                        CHANNELS 3 Zrotation Xrotation Yrotation
                                        End Site
                                        {
                                            OFFSET  -2.727660   0.000000   0.000000
                                        }
                                    }
                                }
                            }
                            JOINT RightFinger3
                            {
                                OFFSET  -7.899780   0.000000  -1.078090
                                CHANNELS 3 Zrotation Xrotation Yrotation
                                JOINT RightFinger31
                                {
                                    OFFSET  -4.646920   0.000000   0.000000
                                    CHANNELS 3 Zrotation Xrotation Yrotation
                                    JOINT RightFinger32
                                    {
                                        OFFSET  -2.323470   0.000000   0.000000
                                        CHANNELS 3 Zrotation Xrotation Yrotation
                                        End Site
                                        {
                                            OFFSET  -2.273050   0.000000   0.000000
                                        }
                                    }
                                }
                            }
                            JOINT RightFinger4
                            {
                                OFFSET  -7.435090   0.000000  -3.252850
                                CHANNELS 3 Zrotation Xrotation Yrotation
                                JOINT RightFinger41
                                {
                                    OFFSET  -3.717550   0.000000   0.000000
                                    CHANNELS 3 Zrotation Xrotation Yrotation
                                    JOINT RightFinger42
                                    {
                                        OFFSET  -1.858770   0.000000   0.000000
                                        CHANNELS 3 Zrotation Xrotation Yrotation
                                        End Site
                                        {
                                            OFFSET  -1.818440   0.000000   0.000000
                                        }
                                    }
                                }
                            }
                        }
                    }
                }
            }
        }
    }
    JOINT LeftHip
    {
        OFFSET   9.783010   0.000000   0.000000
        CHANNELS 3 Zrotation Xrotation Yrotation
        JOINT LeftKnee
        {
            OFFSET   0.000070 -41.789100   0.000028
            CHANNELS 3 Zrotation Xrotation Yrotation
            JOINT LeftAnkle
            {
                OFFSET   0.000087 -41.133200  -0.000100
                CHANNELS 3 Zrotation Xrotation Yrotation
                JOINT LeftToe
                {
                    OFFSET   0.000000  -6.358960  14.674500
                    CHANNELS 3 Zrotation Xrotation Yrotation
                    End Site
                    {
                        OFFSET   0.000000   0.000000   3.913200
                    }
                }
            }
        }
    }
    JOINT RightHip
    {
        OFFSET  -9.783020   0.000000   0.000000
        CHANNELS 3 Zrotation Xrotation Yrotation
        JOINT RightKnee
        {
            OFFSET   0.000044 -41.789100  -0.000870
            CHANNELS 3 Zrotation Xrotation Yrotation
            JOINT RightAnkle
            {
                OFFSET  -0.000090 -41.133200  -0.000245
                CHANNELS 3 Zrotation Xrotation Yrotation
                JOINT RightToe
                {
                    OFFSET   0.000000  -6.358960  14.674500
                    CHANNELS 3 Zrotation Xrotation Yrotation
                    End Site
                    {
                        OFFSET   0.000000   0.000000   3.913200
                    }
                }
            }
        }
    }
}
MOTION
Frames: 4
Frame Time:   0.016667
 -0.379866  89.378700  -2.721610  -0.920677 -10.284500  -1.853380   1.310990   8.578680   0.113740   2.650280  17.157400   0.025302   0.335964  -1.486570   0.010616   0.560968  -3.014200   5.141660  -7.784160  -2.127330   8.123540 -74.468500  11.226100  -3.713310  -0.482598  -0.994521 -20.643700   7.979670  -7.945350  -0.104811  42.083500  36.423000 -53.248000 -31.976000   0.007424   0.006377 -10.988000  -0.000802  -0.007932 -48.406200  -2.435400   2.159390 -39.642600   0.003013  -0.000151 -29.522100   0.000195  -0.001080 -46.334400  -3.552750   3.389080 -54.431200  -0.001075   0.002067 -39.012500  -0.004649  -0.004790 -34.452800  -5.228540   7.575820 -52.198200   0.005072  -0.007219 -34.764000   0.006643   0.002040 -46.626600  -7.636150   7.144500 -70.656100   0.000542  -0.000539 -47.056900  -0.003907  -0.000986   5.217030  -0.295683  10.505900  60.169900  -5.595660  40.370700  -8.875180  -9.247910  88.941500  14.677900 -15.200700   5.494740 -49.721900  24.110300  39.738200 -20.141000  -0.007193  -0.002546 -15.000000   0.000410   0.005814  88.995800   5.001100   0.092547  94.229300  -0.000697   0.000752  70.671900   0.001461  -0.001146  89.000000   0.002568  -0.005803 110.000000  -0.007549   0.002111  80.000000  -0.003013   0.000000  88.996200  -4.994130  -0.087485 110.000000  -0.004900  -0.006058  80.000000  -0.001144   0.010377  88.984700  -9.997860  -0.176308 110.000000  -0.003579  -0.006088  80.000000  -0.004845   0.003007   1.710150  11.917200  -0.133011  -0.232067   0.916615  11.952200  -2.136100  -2.912780  -2.922260  -0.000000   0.000000  -0.000000   0.281088  11.093900  -4.475280  -0.268109   3.443190 -15.632600   1.836970  -3.781510   2.104720   0.000000   0.000000   0.000000
 -0.400202  89.371300  -2.654430  -0.907916 -10.423300  -1.861250   1.280250   8.595190   0.155820   2.580970  17.191800   0.116772   0.294958  -0.826653   0.008220   0.484008  -1.676270   4.968510  -7.747050  -2.061890   8.085710 -74.490300  11.052000  -3.769270  -0.421765  -0.778013 -21.052100   8.005770  -8.146790  -0.195163  42.202800  36.526000 -53.325600 -31.932900  -0.003233   0.001389 -10.966500  -0.001519   0.000873 -48.448900  -2.429000   2.150760 -39.677300   0.003120  -0.000115 -29.556400   0.000166  -0.001050 -46.510600  -3.552450   3.366630 -54.426900  -0.001116   0.001992 -39.052900  -0.004704  -0.004785 -34.493000  -5.228650   7.566730 -52.257600   0.005187  -0.007421 -34.803500   0.006851   0.002068 -46.741800  -7.733420   7.216150 -70.844600   0.000496  -0.000538 -47.182500  -0.003911  -0.000889   5.241070  -0.201180  10.417400  60.100800  -5.505860  40.422900  -8.939820  -9.295700  88.749100  14.938600 -15.503800   5.499060 -49.735400  24.135800  39.770600 -20.074600  -0.007200  -0.002616 -15.000000   0.000404   0.005944  88.995800   5.001130   0.092596  94.266300  -0.000637   0.000725  70.699700   0.001457  -0.001136  89.000000   0.002547  -0.005879 110.000000  -0.007492   0.002098  80.000000  -0.003011  -0.000000  88.996200  -4.994070  -0.087491 110.000000  -0.004957  -0.006174  80.000000  -0.001166   0.010355  88.984700  -9.997860  -0.176313 110.000000  -0.003491  -0.006097  80.000000  -0.004842   0.002919   1.673430  12.052000  -0.176807  -0.208899   1.028130  11.965900  -2.137540  -3.025700  -2.883880   0.000000   0.000000   0.000000   0.293963  11.230500  -4.465150  -0.293174   3.502800 -15.645500   1.844230  -3.850820   2.105590   0.000000   0.000000   0.000000
 -0.416447  89.379000  -2.584950  -0.888565 -10.573700  -1.842770   1.252370   8.628320   0.170638   2.522140  17.258500   0.152716   0.255137  -0.333552   0.007777   0.395183  -0.676248   4.834230  -7.720800  -1.989790   8.085790 -74.495100  10.914800  -3.773660  -0.364208  -0.602236 -21.563000   8.006270  -8.371520  -0.336405  42.302600  36.620300 -53.470300 -31.845500   0.013049   0.009812 -10.922800   0.005074  -0.015851 -48.539800  -2.417400   2.132530 -39.751200   0.003240  -0.005018 -29.629700   0.003826  -0.001009 -46.804400  -3.552270   3.329230 -54.419100   0.004672  -0.008135 -39.120100  -0.004760  -0.004780 -34.589300  -5.228910   7.544990 -52.400400   0.005316  -0.007639 -34.898700   0.007063   0.002106 -46.964400  -7.707500   7.139140 -71.167800   0.000450  -0.000536 -47.397800  -0.003913  -0.000793   5.251030  -0.088996  10.352500  59.992600  -5.414120  40.437900  -8.938010  -9.385700  88.649100  15.104400 -15.670500   5.469420 -49.795900  24.249500  39.918200 -19.973900  -0.007228  -0.002572 -15.000000   0.000390   0.006083  88.995800   5.001150   0.092659  94.253300  -0.000576   0.000706  70.690100   0.001451  -0.001129  89.000000   0.002529  -0.005945 110.000000  -0.007421   0.002084  80.000000  -0.003022  -0.000000  88.996200  -4.994010  -0.087487 110.000000  -0.005005  -0.006289  80.000000  -0.001162   0.010328  88.984700  -9.997860  -0.176310 110.000000  -0.003405  -0.006120  80.000000  -0.004845   0.002844   1.635710  12.201300  -0.215589  -0.185977   1.123390  11.951100  -2.133150  -3.124850  -2.845590   0.000000   0.000000   0.000000   0.305634  11.403500  -4.457620  -0.312313   3.545700 -15.673700   1.853450  -3.923830   2.100370  -0.000000   0.000000   0.000000
 -0.429691  89.396400  -2.516860  -0.865050 -10.703600  -1.798510   1.228040   8.662730   0.172768   2.472530  17.327300   0.157904   0.215485  -0.109434   0.007645   0.354305  -0.221702   4.768970  -7.713310  -1.924740   8.088620 -74.496700  10.799700  -3.773080  -0.310219  -0.447630 -22.091000   7.997350  -8.584640  -0.481712  42.426800  36.714300 -53.615600 -31.784300   0.029331   0.018235 -10.892200   0.011666  -0.032574 -48.607100  -2.405940   2.119050 -39.805900   0.003373  -0.012450 -29.683900   0.009431  -0.000956 -47.078900  -3.552240   3.294340 -54.412700   0.010461  -0.018188 -39.182700  -0.004817  -0.004775 -34.664500  -5.229110   7.528020 -52.511800   0.005458  -0.007824 -34.972900   0.007282   0.002154 -47.171300  -7.681550   7.062150 -71.469200   0.000405  -0.000534 -47.598500  -0.003913  -0.000699   5.249740   0.020816  10.322700  59.870100  -5.330840  40.434500  -8.919580  -9.452510  88.621400  15.233500 -15.744600   5.428080 -49.845300  24.340900  40.038200 -19.890000  -0.007259  -0.002509 -15.000000   0.000374   0.006223  88.995700   5.001180   0.092724  94.240400  -0.000515   0.000688  70.680400   0.001447  -0.001121  89.000000   0.002508  -0.006008 110.000000  -0.007348   0.002068  80.000000  -0.003039  -0.000000  88.996200  -4.993960  -0.087484 110.000000  -0.005051  -0.006401  80.000000  -0.001158   0.010298  88.984700  -9.997850  -0.176307 110.000000  -0.003318  -0.006137  80.000000  -0.004849   0.002770   1.602820  12.335100  -0.246183  -0.165454   1.202510  11.913100  -2.128030  -3.211150  -2.814010   0.000000   0.000000  -0.000000   0.316973  11.559000  -4.455310  -0.332447   3.583610 -15.704500   1.862450  -3.994670   2.077090  -0.000000   0.000000   0.000000
